<svg xmlns="http://www.w3.org/2000/svg" version="1.1" xmlns:xlink="http://www.w3.org/1999/xlink" xmlns:svgjs="http://svgjs.dev/svgjs" width="2000" height="2176" viewBox="0 0 2000 2176"><g transform="matrix(1,0,0,1,0.40969281260902335,0.8809716599189414)"><svg viewBox="0 0 227 247" data-background-color="#282c34" preserveAspectRatio="xMidYMid meet" height="2176" width="2000" xmlns="http://www.w3.org/2000/svg" xmlns:xlink="http://www.w3.org/1999/xlink"><g id="tight-bounds" transform="matrix(1,0,0,1,-0.0464998657688227,-0.09999999999999432)"><svg viewBox="0 0 227.09259948586117 247.2" height="247.2" width="227.09259948586117"><g><svg></svg></g><g><svg viewBox="0 0 227.09259948586117 247.2" height="247.2" width="227.09259948586117"><g transform="matrix(1,0,0,1,0,47.215199999999996)"><svg viewBox="0 0 227.09259948586117 152.7696" height="152.7696" width="227.09259948586117"><g><svg viewBox="0 0 227.09259948586117 152.7696" height="152.7696" width="227.09259948586117"><g><svg viewBox="0 0 227.09259948586117 152.7696" height="152.7696" width="227.09259948586117"><g><svg viewBox="0 0 227.09259948586117 152.7696" height="152.7696" width="227.09259948586117"><g id="textblocktransform"><svg viewBox="0 0 227.09259948586117 152.7696" height="152.7696" width="227.09259948586117" id="textblock"><g><svg viewBox="0 0 227.09259948586117 152.7696" height="152.7696" width="227.09259948586117"><g transform="matrix(1,0,0,1,0,0)"><svg width="227.09259948586117" viewBox="1.9300000667572021 -37.5 56.470001220703125 37.9900016784668" height="152.7696" data-palette-color="#f8b133"><path d="M1.93-13.4L1.93-13.4Q1.93-19.51 4.76-23.21 7.59-26.9 12.35-26.9L12.35-26.9Q16.55-26.9 19.14-23.97L19.14-23.97 19.14-37.5 25.07-37.5 25.07 0 19.7 0 19.41-2.73Q16.75 0.49 12.3 0.49L12.3 0.49Q7.67 0.49 4.8-3.25 1.93-6.98 1.93-13.4ZM7.86-12.89L7.86-12.89Q7.86-8.86 9.41-6.6 10.96-4.35 13.82-4.35L13.82-4.35Q17.46-4.35 19.14-7.59L19.14-7.59 19.14-18.87Q17.5-22.05 13.87-22.05L13.87-22.05Q10.99-22.05 9.42-19.76 7.86-17.48 7.86-12.89ZM45.36-13.21L38.01-13.21 38.01 0 31.83 0 31.83-35.55 45.43-35.55Q51.39-35.55 54.89-32.45 58.4-29.35 58.4-24.24L58.4-24.24Q58.4-19.02 54.97-16.11 51.54-13.21 45.36-13.21L45.36-13.21ZM38.01-30.57L38.01-18.16 45.43-18.16Q48.73-18.16 50.46-19.71 52.19-21.26 52.19-24.19L52.19-24.19Q52.19-27.08 50.44-28.8 48.68-30.52 45.6-30.57L45.6-30.57 38.01-30.57Z" opacity="1" transform="matrix(1,0,0,1,0,0)" fill="#f8b133" class="undefined-text-0" data-fill-palette-color="primary" id="text-0"></path></svg></g></svg></g></svg></g></svg></g><g></g></svg></g></svg></g></svg></g><path d="M0 41.215L0 1 227.093 1 227.093 41.215 213.316 41.215 213.316 14.777 13.777 14.777 13.777 41.215 0 41.215M0 205.985L0 246.2 227.093 246.2 227.093 205.985 213.316 205.985 213.316 232.423 13.777 232.423 13.777 205.985 0 205.985" fill="#f8b133" stroke="transparent" data-fill-palette-color="primary"></path></svg></g><defs></defs></svg><rect width="227.09259948586117" height="247.2" fill="none" stroke="none" visibility="hidden"></rect></g></svg></g></svg>